<?xml version="1.0" encoding="UTF-8"?><svg id="_レイヤー_2" xmlns="http://www.w3.org/2000/svg" xmlns:xlink="http://www.w3.org/1999/xlink" viewBox="0 0 170.74 171.74"><defs><style>.cls-1,.cls-2{fill:#fff;}.cls-3{fill:#00ccf0;}.cls-4{fill:url(#_新規グラデーションスウォッチ_4);}.cls-5{fill:#3c0;}.cls-6{fill:#adc2d6;}.cls-7{fill:#c1d1e0;}.cls-8{fill:url(#_新規グラデーションスウォッチ_4-2);}.cls-2{filter:url(#drop-shadow-2);}.cls-9{fill:url(#_新規グラデーションスウォッチ_1);filter:url(#drop-shadow-1);}</style><linearGradient id="_新規グラデーションスウォッチ_1" x1="80" y1="7" x2="80" y2="100.33" gradientUnits="userSpaceOnUse"><stop offset="0" stop-color="#fff"/><stop offset="1" stop-color="#e2effc"/></linearGradient><filter id="drop-shadow-1" filterUnits="userSpaceOnUse"><feOffset dx="0" dy="3.33"/><feGaussianBlur result="blur" stdDeviation="3.33"/><feFlood flood-color="#000" flood-opacity=".65"/><feComposite in2="blur" operator="in"/><feComposite in="SourceGraphic"/></filter><linearGradient id="_新規グラデーションスウォッチ_4" x1="80" y1="7" x2="80" y2="100.33" gradientUnits="userSpaceOnUse"><stop offset="0" stop-color="#abc2d6"/><stop offset="1" stop-color="#7c9fbe"/></linearGradient><filter id="drop-shadow-2" filterUnits="userSpaceOnUse"><feOffset dx="0" dy="3.42"/><feGaussianBlur result="blur-2" stdDeviation="3.42"/><feFlood flood-color="#000" flood-opacity=".5"/><feComposite in2="blur-2" operator="in"/><feComposite in="SourceGraphic"/></filter><linearGradient id="_新規グラデーションスウォッチ_4-2" x1="98.33" y1="90.33" x2="98.33" y2="157" xlink:href="#_新規グラデーションスウォッチ_4"/></defs><g id="_レイヤー_1-2"><path class="cls-9" d="M10,9.46c0-1.36,1.09-2.46,2.43-2.46h88.38c.83,0,1.59.42,2.04,1.12l8.4,13.08c.38.59,1.03.95,1.73.95h34.58c1.34,0,2.44,1.1,2.44,2.46v73.26c0,1.36-1.09,2.46-2.44,2.46H12.44c-1.34,0-2.44-1.1-2.44-2.46V9.46Z"/><path class="cls-1" d="M110,87v-3.33c0-16.54-13.46-30-30-30s-30,13.46-30,30v3.33h-23.33v-3.33c0-29.41,23.93-53.33,53.33-53.33s53.33,23.93,53.33,53.33v3.33h-23.33Z"/><path class="cls-3" d="M93.69,53.3l8.35-14.46c-6.65-3.28-14.12-5.17-22.03-5.17-27.61,0-50,22.39-50,50h16.67c0-18.41,14.92-33.33,33.33-33.33,4.88,0,9.51,1.08,13.69,2.96Z"/><path class="cls-7" d="M107.83,42.13l-8.38,14.51c8.39,6.05,13.88,15.89,13.88,27.03h16.67c0-17.31-8.8-32.56-22.17-41.54Z"/><path class="cls-4" d="M147.56,22.15h-34.58c-.7,0-1.34-.35-1.73-.95l-8.4-13.08c-.45-.7-1.21-1.12-2.04-1.12H12.43c-1.34,0-2.43,1.1-2.43,2.46v88.41c0,1.36,1.09,2.46,2.44,2.46h135.13c1.34,0,2.44-1.1,2.44-2.46V24.61c0-1.36-1.09-2.46-2.44-2.46ZM146.67,97H13.33V10.33h86.98l8.13,12.67c.99,1.55,2.69,2.48,4.53,2.48h33.69v71.52Z"/><rect class="cls-2" x="36.67" y="90.33" width="123.33" height="66.67" rx="3.33" ry="3.33"/><path class="cls-8" d="M156.67,90.33H40c-1.84,0-3.33,1.49-3.33,3.33v60c0,1.84,1.49,3.33,3.33,3.33h116.67c1.84,0,3.33-1.49,3.33-3.33v-60c0-1.84-1.49-3.33-3.33-3.33ZM156.67,153.67H40v-60h116.67v60Z"/><circle class="cls-3" cx="63.33" cy="117" r="16.67"/><path class="cls-1" d="M66.23,118.4c1.07-.88,3.2-3.75,3.2-6.39s-2.73-5.01-6.1-5.01-6.1,2.24-6.1,5.01,2.25,5.61,3.2,6.39c0,3.97-7.1,3.13-7.1,8.5,0,.03,0,.07,0,.1h19.99s0-.07,0-.1c0-5.35-7.1-4.43-7.1-8.5Z"/><rect class="cls-6" x="90" y="110.33" width="60" height="3.33"/><rect class="cls-6" x="90" y="123.67" width="60" height="3.33"/><rect class="cls-6" x="90" y="137" width="60" height="3.33"/><circle class="cls-5" cx="76.67" cy="127" r="6.67"/><path class="cls-1" d="M75.21,128.75l-1.91-1.91-.64.64,2.55,2.55,5.45-5.45-.64-.64-4.82,4.82Z"/></g></svg>