<?xml version="1.0" encoding="UTF-8"?><svg id="_レイヤー_2" xmlns="http://www.w3.org/2000/svg" xmlns:xlink="http://www.w3.org/1999/xlink" viewBox="0 0 123 133"><defs><style>.cls-1{fill:url(#linear-gradient-2);}.cls-2{filter:url(#drop-shadow-2);}.cls-3{fill:url(#linear-gradient-4);}.cls-4{fill:#adc2d6;}.cls-5{fill:url(#linear-gradient-3);}.cls-6{filter:url(#drop-shadow-1);}.cls-7{fill:url(#linear-gradient-5);}.cls-8{fill:#d7dcdd;}.cls-9{fill:url(#linear-gradient-7);}.cls-10{fill:url(#linear-gradient-6);}.cls-11{fill:url(#_名称未設定グラデーション_7);}.cls-12{fill:url(#linear-gradient);}</style><filter id="drop-shadow-1" filterUnits="userSpaceOnUse"><feOffset dx="2.08" dy="3.12"/><feGaussianBlur result="blur" stdDeviation="2.08"/><feFlood flood-color="#000" flood-opacity=".3"/><feComposite in2="blur" operator="in"/><feComposite in="SourceGraphic"/></filter><linearGradient id="_名称未設定グラデーション_7" x1="61.5" y1="5.32" x2="61.5" y2="129.01" gradientUnits="userSpaceOnUse"><stop offset="0" stop-color="#fff"/><stop offset="1" stop-color="#e5f1fc"/></linearGradient><filter id="drop-shadow-2" filterUnits="userSpaceOnUse"><feOffset dx="2.8" dy="2.8"/><feGaussianBlur result="blur-2" stdDeviation="1.86"/><feFlood flood-color="#000" flood-opacity=".3"/><feComposite in2="blur-2" operator="in"/><feComposite in="SourceGraphic"/></filter><linearGradient id="linear-gradient" x1="42.47" y1="121.29" x2="104.15" y2="24.54" gradientTransform="translate(90.65 -34.44) rotate(56.71)" gradientUnits="userSpaceOnUse"><stop offset="0" stop-color="#004100"/><stop offset=".14" stop-color="#034d03"/><stop offset=".44" stop-color="#096309"/><stop offset=".73" stop-color="#0c700d"/><stop offset="1" stop-color="#0e750f"/></linearGradient><linearGradient id="linear-gradient-2" x1="54.05" y1="125.87" x2="116.87" y2="25.27" gradientTransform="translate(100.38 -39.69) rotate(56.71)" xlink:href="#linear-gradient"/><linearGradient id="linear-gradient-3" x1="48.14" y1="123.24" x2="115.21" y2="18.01" gradientTransform="translate(95.52 -37.06) rotate(56.71)" gradientUnits="userSpaceOnUse"><stop offset="0" stop-color="#005700"/><stop offset=".13" stop-color="#006200"/><stop offset=".44" stop-color="#007800"/><stop offset=".73" stop-color="#008500"/><stop offset="1" stop-color="#008a00"/></linearGradient><linearGradient id="linear-gradient-4" x1="-230.61" y1="-216.54" x2="-212.76" y2="-216.54" gradientTransform="translate(170.3 339.51) rotate(33.29)" gradientUnits="userSpaceOnUse"><stop offset="0" stop-color="#000"/><stop offset=".48" stop-color="#676767"/><stop offset="1" stop-color="#000"/></linearGradient><linearGradient id="linear-gradient-5" x1="-230.61" y1="-133.8" x2="-212.76" y2="-133.8" gradientTransform="translate(170.3 339.51) rotate(33.29)" gradientUnits="userSpaceOnUse"><stop offset="0" stop-color="#dab686"/><stop offset=".52" stop-color="#ffd7a3"/><stop offset="1" stop-color="#dab686"/></linearGradient><linearGradient id="linear-gradient-6" x1="-225.4" y1="-124.04" x2="-217.94" y2="-124.04" xlink:href="#linear-gradient-4"/><linearGradient id="linear-gradient-7" x1="-230.61" y1="-207.92" x2="-212.76" y2="-207.92" gradientTransform="translate(170.3 339.51) rotate(33.29)" gradientUnits="userSpaceOnUse"><stop offset="0" stop-color="silver"/><stop offset=".48" stop-color="#fff"/><stop offset="1" stop-color="silver"/></linearGradient></defs><g id="_レイヤー_1-2"><g class="cls-6"><rect class="cls-11" x="1" y="1" width="121" height="131"/><path class="cls-8" d="M123,133H0V0h123v133ZM2,131h119V2H2v129Z"/></g><rect class="cls-4" x="13" y="13" width="54" height="3"/><rect class="cls-4" x="13" y="26" width="26" height="3"/><path class="cls-4" d="M110,54H11v-17h99v17ZM14,51h93v-11H14v11Z"/><rect class="cls-4" x="13" y="60" width="98" height="3"/><path class="cls-4" d="M110,87H11v-17h99v17ZM14,84h93v-11H14v11Z"/><rect class="cls-4" x="13" y="93" width="98" height="3"/><path class="cls-4" d="M110,121H11v-17h99v17ZM14,118h93v-11H14v11Z"/><g class="cls-2"><rect class="cls-12" x="44.87" y="63.66" width="64.73" height="6.21" transform="translate(-20.97 94.68) rotate(-56.71)"/><rect class="cls-1" x="54.6" y="70.06" width="64.73" height="6.21" transform="translate(-21.92 105.69) rotate(-56.71)"/><rect class="cls-5" x="49.73" y="65.69" width="64.73" height="8.54" transform="translate(-21.45 100.18) rotate(-56.71)"/><path class="cls-3" d="M109.85,28.01c-7.02-4.61-10.74-.21-10.74-.21l-8.55,13.02s2.81-3.01,9.83,1.6c7.02,4.61,5.09,8.2,5.09,8.2l8.55-13.02s2.84-4.98-4.18-9.59Z"/><path class="cls-7" d="M49.67,119.36l21.88-17.06s2.84-4.97-4.18-9.58c-7.02-4.61-10.74-.22-10.74-.22l-6.96,26.86Z"/><path class="cls-10" d="M52.56,108.18l-2.9,11.18,9.16-7.14c-.08-.11.28-1.57-2.18-3.18-2.83-1.86-4.04-.84-4.09-.85Z"/><path class="cls-9" d="M101.24,41.12c-7.02-4.61-9.83-1.61-9.83-1.61l-1.72,2.62s2.81-3,9.83,1.61c7.02,4.61,5.1,8.19,5.1,8.19l1.72-2.62s1.92-3.58-5.1-8.19Z"/></g></g></svg>