<?xml version="1.0" encoding="UTF-8"?><svg id="_レイヤー_2" xmlns="http://www.w3.org/2000/svg" xmlns:xlink="http://www.w3.org/1999/xlink" viewBox="0 0 153 132.97"><defs><style>.cls-1{filter:url(#drop-shadow-2);}.cls-2{fill:#86aacd;}.cls-3{fill:#fff;}.cls-4{fill:#365821;}.cls-5{fill:url(#_名称未設定グラデーション_29);}.cls-6{fill:url(#_名称未設定グラデーション_11);}.cls-7{fill:url(#_新規グラデーションスウォッチ_2-2);}.cls-8{fill:url(#_名称未設定グラデーション_14);}.cls-9{fill:#1e1c1c;}.cls-10{fill:url(#_新規グラデーションスウォッチ_1);}.cls-11{fill:#ffa41b;}.cls-12{fill:url(#_新規グラデーションスウォッチ_1-2);}.cls-13{fill:#333;filter:url(#drop-shadow-1);}.cls-14{fill:#1a1a1a;}.cls-15{fill:#f90;}.cls-16{fill:url(#_名称未設定グラデーション_20);}.cls-17{fill:url(#_新規グラデーションスウォッチ_2);}</style><filter id="drop-shadow-1" filterUnits="userSpaceOnUse"><feOffset dx="0" dy="3.64"/><feGaussianBlur result="blur" stdDeviation="1.82"/><feFlood flood-color="#000" flood-opacity=".5"/><feComposite in2="blur" operator="in"/><feComposite in="SourceGraphic"/></filter><linearGradient id="_名称未設定グラデーション_11" x1="55.32" y1="66.02" x2="55.32" y2="29.61" gradientUnits="userSpaceOnUse"><stop offset="0" stop-color="#fff"/><stop offset="1" stop-color="#9cf"/></linearGradient><linearGradient id="_名称未設定グラデーション_14" x1="55.32" y1="66.02" x2="55.32" y2="51.12" gradientUnits="userSpaceOnUse"><stop offset="0" stop-color="#7aba4f"/><stop offset="1" stop-color="#007927"/></linearGradient><linearGradient id="_名称未設定グラデーション_20" x1="28.02" y1="55.26" x2="35.06" y2="55.26" gradientUnits="userSpaceOnUse"><stop offset="0" stop-color="#9a7b35"/><stop offset=".35" stop-color="#d39f54"/><stop offset="1" stop-color="#9a7b35"/></linearGradient><linearGradient id="_名称未設定グラデーション_29" x1="28.02" y1="42.14" x2="42.11" y2="42.14" gradientUnits="userSpaceOnUse"><stop offset="0" stop-color="#314f1e"/><stop offset=".46" stop-color="#619a3a"/><stop offset=".77" stop-color="#6ccf36"/><stop offset="1" stop-color="#cf6"/></linearGradient><filter id="drop-shadow-2" filterUnits="userSpaceOnUse"><feOffset dx="0" dy="3.64"/><feGaussianBlur result="blur-2" stdDeviation="1.82"/><feFlood flood-color="#000" flood-opacity=".5"/><feComposite in2="blur-2" operator="in"/><feComposite in="SourceGraphic"/></filter><linearGradient id="_新規グラデーションスウォッチ_2" x1="-248.15" y1="-709.11" x2="-238.01" y2="-709.11" gradientTransform="translate(382.36 712.26)" gradientUnits="userSpaceOnUse"><stop offset="0" stop-color="#333"/><stop offset=".16" stop-color="#666"/><stop offset=".41" stop-color="#333"/><stop offset=".69" stop-color="#333"/><stop offset="1" stop-color="#1a1a1a"/></linearGradient><linearGradient id="_新規グラデーションスウォッチ_1" x1="-248.87" y1="-706.57" x2="-237.28" y2="-706.57" gradientTransform="translate(381.36 712.05)" gradientUnits="userSpaceOnUse"><stop offset="0" stop-color="#f90"/><stop offset=".16" stop-color="#f7931e"/><stop offset=".41" stop-color="#f90"/><stop offset=".85" stop-color="#f15a24"/><stop offset="1" stop-color="#f58a07"/></linearGradient><linearGradient id="_新規グラデーションスウォッチ_1-2" x1="-248.87" y1="-622.18" x2="-237.28" y2="-622.18" gradientTransform="translate(84.39 750.75) rotate(23.12)" xlink:href="#_新規グラデーションスウォッチ_1"/><linearGradient id="_新規グラデーションスウォッチ_2-2" x1="-248.87" y1="-669.26" x2="-237.28" y2="-669.26" gradientTransform="translate(366.71 709.06)" xlink:href="#_新規グラデーションスウォッチ_2"/></defs><g id="_レイヤー_1-2"><rect class="cls-13" x="5.46" y="13.63" width="142" height="109.23" rx="3.64" ry="3.64"/><rect class="cls-3" x="16.38" y="17.27" width="123.79" height="101.95"/><rect class="cls-3" x="9.1" y="60.96" width="3.64" height="14.56" rx="1.82" ry="1.82"/><rect class="cls-6" x="28.02" y="29.61" width="54.62" height="36.41"/><rect class="cls-8" x="28.02" y="51.12" width="54.62" height="14.9"/><polygon class="cls-4" points="43.87 66.02 28.02 66.02 28.02 51.12 43.87 66.02"/><rect class="cls-16" x="28.02" y="44.5" width="7.05" height="21.52" rx="3.42" ry="3.42"/><path class="cls-5" d="M28.02,29.61c7.78,0,14.09,13,14.09,19.86s-6.31,4.97-14.09,4.97v-24.83Z"/><rect class="cls-2" x="93.56" y="29.61" width="36.41" height="3.64"/><rect class="cls-2" x="93.56" y="44.17" width="36.41" height="3.64"/><rect class="cls-2" x="93.56" y="58.74" width="36.41" height="3.64"/><rect class="cls-2" x="28.02" y="91.5" width="101.95" height="3.64"/><rect class="cls-2" x="28.02" y="76.94" width="101.95" height="3.64"/><rect class="cls-2" x="28.02" y="106.07" width="101.95" height="3.64"/><path class="cls-11" d="M28.28,100.12c.23.18.61.19.98.22-.28-.17-.58-.24-.98-.22Z"/><path class="cls-11" d="M29.27,100.35s0,0,0,0c0,0,0,0-.01,0,0,0,0,0,0,0Z"/><path class="cls-11" d="M100.57,92.48c-.09,0-.2,0-.3.01.1,0,.2,0,.3-.01Z"/><path class="cls-11" d="M47.07,100.85l.06-.29c.87,0,.25.33,1.06.26.32-.41,1.34.04,1.62-.18,0,.03.39.05.36.17.12-.22.41-.05.65-.11.09-.06-.07-.07-.13-.13l.57-.08c.22.07.28.2.04.23,1.49.08,8.64.29,10.25.18-.21-.17-.7-.05-.89-.32.42-.15.62.05.81-.1.16.39.93.09,1.25.49l.12-.22.21.14c1.87-.23.43-.11,2.08-.06.96-.03,1.41-.34,1.95-.23-.08,0-.29-.14-.04-.2.04.2.66-.14.78.06.24-.02,1.03,0,.76-.27.13.13.84.19.42.31.24,0,.47.05.64-.01l-.3-.07c.8-.04,1.24.17,1.76-.07l-.3-.11c.48-.02.88-.04,1.07.23l-.49.08c.79,0,1.27-.02,1.93-.17h-.24c.84-.27,5.25-.49,6.03-.82l-.36-.21.67-.17c-.08,0-.32.67-.39.6,1.43-.02,8.87-.18,10.19-.04.53.11.1.33.09.36.65-.08.28-.22.83-.2.15.04-.03.16-.12.19.24-.02.47.05.48-.05-.3-.07-.17-.33-.3-.5l.71.02-.03.16c.16,0,.4-.44,1.1-.35,1.18.07,2.45.01,3.63.05-.02.1-.27.15-.52.21.16,0,.4-.02.55.05-.29-.17.5-.11.27-.19.87-.39,1.99-.03,2.75-.3.07-.36,1.64-6.1,1.64-6.52.24,0,.47.02.55.05-.06-.1-.53-.15-.78-.09l-.04.23c-.57.08-.13-.13-.69-.12-.03-.19.48-.22.93-.24-.41-.02-.81-.16-.98.05-.38-.08.04-.23-.42-.31-.33.05-.76.24-1.13.13v-.03c-.91-.19-1.39.28-2.23.09l.09-.06c-.3-.11-.88.04-1.41-.08.15.04.28.17-.04.19-.61-.12-1.03,0-1.48-.14l-.43.18c-2.13-.04-10.56.22-12.71.25l.08-.03c-3.27.09-9.97.08-13.35.33-.52-.18-1.24-.14-1.79-.19.3.07.2.2-.04.19-1.66-.02-.11.12-1.79.2-1.93.17-9.33-.02-11.04-.18-.92.26-2.07.06-2.97.23l.09-.06c-.97.1-6.46-.14-7.58-.05l.15.04c-.98.16-.85-.12-1.62-.21.1.3-.74.46-1.06.48v-.06c-.47.05-1.57.31-2.37.35l.03-.16c-.67.17-1.92.1-2.4.12-1.1-.07-2.79-.35-4.25-.13l-.95-.46-.14.05s-1.53,5.56.41,6.74l-.03.16.38-.02c.46.08.67-.11.64.05l-.63-.02c.46.05.14.13-.04.22.19.02.38.03.53.08.09-.06-.07-.07-.14-.1.25-.06.59-.21.9-.13.47.02.03.26.58.28,2.91.12,5.73.31,8.66.28.07.07-.01.06-.1.09.89-.07,1.67-.04,2.48-.12.22.07.29.17.35.24-.13-.13,4.45-.15,4.53-.11Z"/><g class="cls-1"><path class="cls-15" d="M97.16,95.52h2.9v4.35c0,.8-.65,1.45-1.45,1.45h0c-.8,0-1.45-.65-1.45-1.45v-4.35h0Z" transform="translate(46.56 -30.81) rotate(23.12)"/><path class="cls-17" d="M134.76,1.7h9.04c.31,0,.55.25.55.55v2.34h-10.14v-2.34c0-.31.25-.55.55-.55Z" transform="translate(12.42 -54.44) rotate(23.12)"/><path class="cls-10" d="M132.86,4.4h10.85c.2,0,.37.17.37.37v1.8h-11.59v-1.8c0-.2.17-.37.37-.37Z" transform="translate(13.26 -53.86) rotate(23.12)"/><path class="cls-12" d="M104.72,93.94s6.94-11.35,9.74-17.9l-10.66-4.55c-2.8,6.55-6.19,19.41-6.19,19.41l7.11,3.03Z"/><path class="cls-7" d="M117.84,3.57h11.59v71.73c0,.39-.32.71-.71.71h-10.17c-.39,0-.71-.32-.71-.71V3.57h0Z" transform="translate(25.55 -45.35) rotate(23.12)"/><path class="cls-9" d="M144.41,16.13l-2.65-4.05-.85,2,1.24,1.89c.12.18.14.41.05.61l-12.5,29.28c-.09.21,0,.45.22.54l1.24.53c.21.09.45,0,.54-.22l12.77-29.91c.1-.22.07-.48-.06-.68Z"/><polygon class="cls-14" points="102.41 96.89 97.08 94.62 97.55 91.67 104.21 94.51 102.41 96.89"/><rect class="cls-14" x="97.28" y="95.7" width="4.35" height="1.45" transform="translate(45.85 -31.31) rotate(23.12)"/></g></g></svg>