<?xml version="1.0" encoding="UTF-8"?><svg id="_レイヤー_2" xmlns="http://www.w3.org/2000/svg" viewBox="0 0 112 112"><defs><style>.cls-1{fill:#fff;fill-rule:evenodd;}.cls-2{fill:#007bb8;}</style></defs><g id="_レイヤー_1-2"><rect class="cls-2" width="112" height="112" rx="14" ry="14"/><path class="cls-1" d="M63.1,60.28c0,4.97.12,9.11-2.39,13.54-2.03,3.59-5.25,5.8-8.83,5.8-4.89,0-7.76-3.73-7.76-9.26,0-10.87,9.75-12.84,18.98-12.84v2.76ZM75.97,91.39c-.84.76-2.06.81-3.01.3-4.24-3.52-5-5.15-7.31-8.5-7.01,7.14-11.97,9.28-21.04,9.28-10.74,0-19.1-6.63-19.1-19.89,0-10.36,5.61-17.4,13.61-20.86,6.92-3.04,16.59-3.59,23.99-4.42v-1.66c0-3.04.24-6.63-1.55-9.25-1.55-2.35-4.54-3.32-7.16-3.32-4.87,0-9.2,2.49-10.26,7.66-.22,1.15-1.06,2.29-2.22,2.35l-12.37-1.34c-1.05-.24-2.21-1.07-1.91-2.67,2.84-15,16.39-19.54,28.54-19.54,6.21,0,14.33,1.66,19.22,6.35,6.21,5.8,5.61,13.54,5.61,21.96v19.88c0,5.98,2.48,8.6,4.81,11.83.81,1.16,1,2.54-.04,3.39-2.61,2.19-7.24,6.21-9.79,8.48l-.03-.03Z"/></g></svg>