<?xml version="1.0" encoding="UTF-8"?>
<svg id="_レイヤー_1" data-name="レイヤー_1" xmlns="http://www.w3.org/2000/svg" version="1.1" xmlns:xlink="http://www.w3.org/1999/xlink" viewBox="0 0 47 47">
  <!-- Generator: Adobe Illustrator 29.3.0, SVG Export Plug-In . SVG Version: 2.1.0 Build 146)  -->
  <defs>
    <style>
      .st0 {
        fill: url(#_新規グラデーションスウォッチ_12);
        fill-rule: evenodd;
      }

      .st1 {
        fill: #fff;
      }

      .st2 {
        fill: url(#_新規グラデーションスウォッチ_1);
      }

      .st3 {
        fill: url(#_新規グラデーションスウォッチ_11);
      }
    </style>
    <linearGradient id="_新規グラデーションスウォッチ_1" data-name="新規グラデーションスウォッチ 1" x1="-6.1" y1="7.1" x2="39.5" y2="52.7" gradientUnits="userSpaceOnUse">
      <stop offset="0" stop-color="#51dad3"/>
      <stop offset=".6" stop-color="#00b3f2"/>
      <stop offset="1" stop-color="#0065bc"/>
    </linearGradient>
    <linearGradient id="_新規グラデーションスウォッチ_11" data-name="新規グラデーションスウォッチ 1" x1="-1.8" y1="13.2" x2="36.6" y2="51.6" xlink:href="#_新規グラデーションスウォッチ_1"/>
    <linearGradient id="_新規グラデーションスウォッチ_12" data-name="新規グラデーションスウォッチ 1" x1="6.3" y1="-5.4" x2="51.9" y2="40.2" xlink:href="#_新規グラデーションスウォッチ_1"/>
  </defs>
  <path class="st2" d="M38.8,45.1c4.5,0,8.2-3.7,8.2-8.2s-3.7-8.2-8.2-8.2-.2,0-.2,0c-.1-5.2-4.4-9.4-9.6-9.4s-3.1.4-4.4,1.1c-1.7-3.7-5.4-6.3-9.7-6.3s-10.6,4.7-10.6,10.6.3,2.7.7,3.9c-2.9,1.4-5,4.4-5,7.9s3.9,8.7,8.7,8.7h30.1Z"/>
  <path class="st1" d="M8.7,42.3c-3.2,0-5.9-2.6-5.9-5.9s1.3-4.3,3.4-5.3l2.4-1.1-1-2.5c-.4-.9-.5-1.9-.5-2.9,0-4.3,3.5-7.8,7.8-7.8s5.8,1.8,7.1,4.6l1.2,2.7,2.7-1.4c1-.5,2-.8,3.1-.8,3.7,0,6.7,3,6.8,6.7v2.8c0,0,2.9,0,2.9,0,0,0,.1,0,.2,0,3,0,5.4,2.4,5.4,5.4s-2.4,5.4-5.4,5.4H8.7Z"/>
  <path class="st3" d="M22.6,29.1l-7.5,7.3,1.8,1.7,4.5-4.4v11.2h2.5v-11.2l4.5,4.4,1.8-1.7-7.5-7.3Z"/>
  <path class="st0" d="M35.4,2.3c-3,1.1-6.3,4.6-9.3,12.8,0,0-5-3.6-9.9,2.1-1.7,1.9-3.4,5-4.8,9.6,0,0,2.5-5.1,6-8.2,2.4-2.1,5.3-3.2,8.1-1.1l-1.5,1.2,5.7-3.2-1.2-.5s2.3-6.9,7.2-9.3c2.8-1.4,6.4-1.3,10.9,2.4,0,0-5-8.1-11.2-5.9Z"/>
</svg>