<?xml version="1.0" encoding="UTF-8"?><svg id="_レイヤー_2" xmlns="http://www.w3.org/2000/svg" viewBox="0 0 238.01 238.01"><defs><style>.cls-1{fill:#73be1e;}.cls-2{fill:#fff;}.cls-3{fill:#808dff;}.cls-4{fill:#ba0000;}.cls-5{fill:#f90;}.cls-6{fill:#e41b5b;}</style></defs><g id="_レイヤー_1-2"><path class="cls-2" d="M96.5,9.31l-29.06,29.06c-6.74,6.74-10.09,16.05-9.18,25.54l.38,4.04,36.6,36.59,7.86-6.11c9.37-7.27,22.45-7.27,31.82,0l7.86,6.11,36.6-36.59.38-4.04c.91-9.49-2.44-18.8-9.18-25.54l-29.06-29.06c-12.41-12.41-32.61-12.41-45.02,0Z"/><path class="cls-2" d="M38.37,67.43s-29.06,29.06-29.06,29.06c-6.21,6.2-9.31,14.35-9.31,22.51s3.1,16.3,9.31,22.51l29.07,29.06c6.74,6.74,16.05,10.09,25.55,9.18l4.04-.38,36.6-36.6-6.11-7.86c-7.27-9.37-7.27-22.45,0-31.82l6.11-7.86-36.6-36.59-4.04-.38c-9.5-.91-18.81,2.44-25.55,9.18Z"/><path class="cls-2" d="M134.92,139.56c-9.37,7.27-22.46,7.27-31.82,0l-7.86-6.11-36.6,36.59-.38,4.04c-.91,9.49,2.44,18.8,9.18,25.54l29.07,29.06c6.01,6.01,14,9.33,22.51,9.33s16.5-3.32,22.51-9.33l29.06-29.06c6.74-6.74,10.09-16.05,9.18-25.54l-.38-4.04-36.6-36.59-7.86,6.11Z"/><path class="cls-2" d="M174.1,58.25l-4.04.38-36.6,36.59,6.11,7.86c7.27,9.37,7.27,22.45,0,31.82l-6.11,7.86,36.6,36.6,4.04.38c9.49.91,18.8-2.44,25.54-9.17l29.06-29.06c12.41-12.41,12.41-32.61,0-45.02l-29.06-29.06c-6.74-6.74-16.05-10.09-25.54-9.18Z"/><path class="cls-2" d="M90.08,90.07h0c-15.95,15.95-15.95,41.91,0,57.86,15.95,15.95,41.91,15.95,57.86,0,7.73-7.72,11.98-18,11.98-28.93s-4.26-21.2-11.98-28.93c-15.95-15.95-41.91-15.95-57.86,0Z"/><path class="cls-1" d="M104.48,17.29l-29.06,29.06c-4.51,4.51-6.49,10.6-5.93,16.49l26.69,26.69c13.4-10.4,32.26-10.4,45.66,0l26.69-26.69c.56-5.89-1.41-11.98-5.93-16.49l-29.06-29.06c-8.02-8.02-21.04-8.02-29.06,0Z"/><path class="cls-5" d="M46.35,75.41l-29.07,29.06c-8.02,8.02-8.02,21.04,0,29.06l29.07,29.06c4.51,4.51,10.6,6.49,16.5,5.93l26.69-26.69c-10.41-13.4-10.41-32.26,0-45.65l-26.69-26.69c-5.9-.56-11.98,1.41-16.5,5.93Z"/><path class="cls-3" d="M96.17,148.47l-26.69,26.69c-.56,5.89,1.41,11.98,5.93,16.49l29.07,29.06c8.02,8.02,21.03,8.02,29.06,0l29.06-29.06c4.51-4.52,6.49-10.61,5.93-16.49l-26.69-26.69c-13.4,10.4-32.27,10.4-45.67,0Z"/><path class="cls-6" d="M175.17,69.48l-26.69,26.69c10.41,13.4,10.41,32.26,0,45.65l26.69,26.69c5.89.56,11.98-1.41,16.5-5.93l29.06-29.06c8.03-8.02,8.03-21.04,0-29.06l-29.07-29.06c-4.51-4.51-10.6-6.49-16.5-5.93Z"/><path class="cls-4" d="M139.96,98.05c11.57,11.57,11.57,30.33,0,41.9-11.57,11.58-30.33,11.58-41.91,0-11.57-11.57-11.57-30.33,0-41.9,11.57-11.57,30.33-11.57,41.9,0Z"/></g></svg>