<?xml version="1.0" encoding="UTF-8"?><svg id="_レイヤー_2" xmlns="http://www.w3.org/2000/svg" xmlns:xlink="http://www.w3.org/1999/xlink" viewBox="0 0 120.8 143.8"><defs><style>.cls-1{fill:url(#linear-gradient);filter:url(#drop-shadow-1);}.cls-1,.cls-2{stroke:#fff;stroke-miterlimit:10;stroke-width:4px;}.cls-2{fill:url(#linear-gradient-2);filter:url(#drop-shadow-2);}.cls-3{fill:#adc2d6;}.cls-4{fill:none;stroke:#adc2d6;stroke-width:3px;}.cls-5{fill:#fff;filter:url(#drop-shadow-3);stroke:#e9e9e9;stroke-width:1.99px;}</style><linearGradient id="linear-gradient" x1="101.03" y1="2522.74" x2="199.02" y2="2522.74" gradientTransform="translate(209.05 2554.27) rotate(-180)" gradientUnits="userSpaceOnUse"><stop offset="0" stop-color="#0c0"/><stop offset="1" stop-color="#7efa3b"/></linearGradient><filter id="drop-shadow-1" filterUnits="userSpaceOnUse"><feOffset dx="0" dy="2.83"/><feGaussianBlur result="blur" stdDeviation="2.27"/><feFlood flood-color="#848484" flood-opacity="1"/><feComposite in2="blur" operator="in"/><feComposite in="SourceGraphic"/></filter><linearGradient id="linear-gradient-2" x1="9.72" y1="74.23" x2="107.72" y2="74.23" gradientUnits="userSpaceOnUse"><stop offset="0" stop-color="#ffae00"/><stop offset="1" stop-color="#fffa3b"/></linearGradient><filter id="drop-shadow-2" filterUnits="userSpaceOnUse"><feOffset dx="0" dy="2.83"/><feGaussianBlur result="blur-2" stdDeviation="2.27"/><feFlood flood-color="#848484" flood-opacity="1"/><feComposite in2="blur-2" operator="in"/><feComposite in="SourceGraphic"/></filter><filter id="drop-shadow-3" filterUnits="userSpaceOnUse"><feOffset dx="0" dy="2"/><feGaussianBlur result="blur-3" stdDeviation="2"/><feFlood flood-color="#848484" flood-opacity="1"/><feComposite in2="blur-3" operator="in"/><feComposite in="SourceGraphic"/></filter></defs><g id="_レイヤー_1-2"><path class="cls-1" d="M98.34,23.25c-9.25-11.84-21.65-16.97-37.81-16.97-27.85,0-50.51,22.66-50.51,50.51h20c0-16.82,13.69-30.51,30.51-30.51,10.68,0,18.07,3.02,23.52,11.35l-11.42,10.97h35.38V13.02l-9.68,10.23Z"/><path class="cls-2" d="M19.4,82.52c9.25,11.84,21.65,16.97,37.81,16.97,27.85,0,50.51-22.66,50.51-50.51h-20c0,16.82-13.69,30.51-30.51,30.51-10.68,0-18.07-3.02-23.52-11.35l11.42-10.97H9.72v35.58l9.68-10.23Z"/><rect class="cls-5" x="42.81" y="44.77" width="70.88" height="89.44"/><rect class="cls-4" x="64.28" y="52.46" width="37.67" height="12.96"/><line class="cls-4" x1="73.88" y1="52.46" x2="73.88" y2="64.21"/><line class="cls-4" x1="83.33" y1="52.46" x2="83.33" y2="64.21"/><line class="cls-4" x1="92.78" y1="52.46" x2="92.78" y2="64.21"/><rect class="cls-3" x="72.38" y="74.81" width="31.19" height="3.24"/><rect class="cls-3" x="52.53" y="86.56" width="51.04" height="3.24"/><rect class="cls-3" x="52.53" y="98.3" width="51.04" height="3.24"/><rect class="cls-3" x="52.53" y="110.05" width="51.04" height="3.24"/><rect class="cls-3" x="52.53" y="121.8" width="51.04" height="3.24"/></g></svg>