<?xml version="1.0" encoding="UTF-8"?><svg xmlns="http://www.w3.org/2000/svg" xmlns:xlink="http://www.w3.org/1999/xlink" viewBox="0 0 137 140"><defs><style>.cls-1{fill:url(#linear-gradient-15);}.cls-2{fill:url(#linear-gradient-13);}.cls-3{fill:url(#linear-gradient-2);}.cls-4{fill:url(#linear-gradient-10);}.cls-5{fill:url(#linear-gradient-12);}.cls-6{fill:#fff;}.cls-7{fill:url(#linear-gradient-4);}.cls-7,.cls-8{mix-blend-mode:multiply;opacity:.3;}.cls-9{fill:url(#linear-gradient-3);}.cls-10{isolation:isolate;}.cls-11{fill:url(#linear-gradient-8);}.cls-12{fill:url(#linear-gradient);filter:url(#drop-shadow-1);}.cls-13{fill:url(#linear-gradient-14);}.cls-14{fill:url(#linear-gradient-17);}.cls-15{fill:url(#linear-gradient-7);}.cls-16{fill:url(#linear-gradient-9);}.cls-17{fill:url(#linear-gradient-11);}.cls-18{fill:url(#linear-gradient-6);}.cls-8{fill:url(#linear-gradient-5);}.cls-19{fill:none;stroke:#dce6ed;stroke-width:3px;}.cls-20{fill:url(#linear-gradient-16);}</style><linearGradient id="linear-gradient" x1="68.53" y1="122.61" x2="68.53" y2=".96" gradientUnits="userSpaceOnUse"><stop offset="0" stop-color="#789dbd"/><stop offset="1" stop-color="#a1bbd1"/></linearGradient><filter id="drop-shadow-1" filterUnits="userSpaceOnUse"><feOffset dx="0" dy="2"/><feGaussianBlur result="blur" stdDeviation="2"/><feFlood flood-color="#848484" flood-opacity="1"/><feComposite in2="blur" operator="in"/><feComposite in="SourceGraphic"/></filter><linearGradient id="linear-gradient-2" x1="68.68" y1="120.78" x2="68.68" y2="5.84" xlink:href="#linear-gradient"/><linearGradient id="linear-gradient-3" x1="68.32" y1="127.23" x2="68.32" y2="116.53" gradientUnits="userSpaceOnUse"><stop offset="0" stop-color="#789dbd"/><stop offset="1" stop-color="#c2d3e1"/></linearGradient><linearGradient id="linear-gradient-4" x1="10.88" y1="122.39" x2="14.18" y2="122.39" gradientUnits="userSpaceOnUse"><stop offset="0" stop-color="#acacac"/><stop offset="1" stop-color="#fff"/></linearGradient><linearGradient id="linear-gradient-5" x1="-7.69" x2="-3.95" gradientTransform="translate(118.72) rotate(-180) scale(1 -1)" xlink:href="#linear-gradient-4"/><linearGradient id="linear-gradient-6" x1="8.94" y1="129.95" x2="8.94" y2="113.98" xlink:href="#linear-gradient"/><linearGradient id="linear-gradient-7" x1="128.13" y1="129.95" x2="128.13" y2="113.98" xlink:href="#linear-gradient"/><linearGradient id="linear-gradient-8" x1="31.64" y1="44.18" x2="31.64" y2="40.94" gradientUnits="userSpaceOnUse"><stop offset="0" stop-color="#aac1d5"/><stop offset="1" stop-color="#c2d3e1"/></linearGradient><linearGradient id="linear-gradient-9" y1="59.06" y2="55.81" xlink:href="#linear-gradient-8"/><linearGradient id="linear-gradient-10" y1="73.93" y2="70.69" xlink:href="#linear-gradient-8"/><linearGradient id="linear-gradient-11" y1="88.81" y2="85.57" xlink:href="#linear-gradient-8"/><linearGradient id="linear-gradient-12" y1="103.69" y2="100.45" xlink:href="#linear-gradient-8"/><linearGradient id="linear-gradient-13" x1="54.7" y1="45.61" x2="54.7" y2="40.9" gradientUnits="userSpaceOnUse"><stop offset="0" stop-color="#009ffb"/><stop offset="1" stop-color="#3cf"/></linearGradient><linearGradient id="linear-gradient-14" x1="62.44" y1="60.4" x2="62.44" y2="55.11" gradientUnits="userSpaceOnUse"><stop offset="0" stop-color="#f80"/><stop offset="1" stop-color="#fb0"/></linearGradient><linearGradient id="linear-gradient-15" x1="77.24" y1="75.19" x2="77.24" y2="68.73" gradientUnits="userSpaceOnUse"><stop offset="0" stop-color="#2cb700"/><stop offset="1" stop-color="#87f300"/></linearGradient><linearGradient id="linear-gradient-16" x1="77.5" y1="89.68" x2="77.5" y2="85.24" gradientUnits="userSpaceOnUse"><stop offset="0" stop-color="#ff7fae"/><stop offset="1" stop-color="#ffb5da"/></linearGradient><linearGradient id="linear-gradient-17" x1="72.87" y1="105.35" x2="72.87" y2="98.89" gradientUnits="userSpaceOnUse"><stop offset="0" stop-color="#a976dc"/><stop offset="1" stop-color="#c9f"/></linearGradient></defs><g class="cls-10"><g id="_レイヤー_2"><g id="_レイヤー_1-2"><polygon class="cls-12" points="130.75 4.32 6.6 4.32 6.6 114.42 6.3 114.42 6.3 131.06 11.57 131.06 11.57 127.97 14.52 127.97 122.3 127.97 125.59 127.97 125.59 131.06 130.67 131.06 130.67 124.06 130.75 124.06 130.75 4.32"/><rect class="cls-3" x="6.6" y="4.32" width="124.15" height="119.75"/><rect class="cls-6" x="11.6" y="9.32" width="114.15" height="109.75"/><rect class="cls-9" x="10.78" y="116.82" width="115.09" height="11.15"/><rect class="cls-7" x="10.78" y="116.82" width="3.74" height="11.15"/><rect class="cls-8" x="122.3" y="116.82" width="4.23" height="11.15"/><rect class="cls-18" x="6.3" y="114.42" width="5.27" height="16.65"/><rect class="cls-15" x="125.59" y="114.42" width="5.08" height="16.65"/><line class="cls-19" x1="22.82" y1="50.05" x2="113.44" y2="50.05"/><line class="cls-19" x1="22.82" y1="65.02" x2="113.44" y2="65.02"/><line class="cls-19" x1="22.82" y1="79.99" x2="113.44" y2="79.99"/><line class="cls-19" x1="22.82" y1="94.96" x2="113.44" y2="94.96"/><rect class="cls-11" x="26.94" y="39.19" width="9.39" height="6.16"/><rect class="cls-16" x="26.94" y="54.07" width="9.39" height="6.16"/><rect class="cls-4" x="26.94" y="68.94" width="9.39" height="6.16"/><rect class="cls-17" x="26.94" y="83.82" width="9.39" height="6.16"/><rect class="cls-5" x="26.94" y="98.7" width="9.39" height="6.16"/><rect class="cls-19" x="22.45" y="20.46" width="91.57" height="88.64"/><line class="cls-19" x1="40.94" y1="21.34" x2="40.94" y2="108.8"/><line class="cls-19" x1="59.14" y1="21.34" x2="59.14" y2="108.8"/><line class="cls-19" x1="77.34" y1="21.34" x2="77.34" y2="108.8"/><line class="cls-19" x1="95.53" y1="21.34" x2="95.53" y2="108.8"/><line class="cls-19" x1="22.82" y1="35.08" x2="113.44" y2="35.08"/><rect class="cls-2" x="42.52" y="38.86" width="24.36" height="7.92"/><rect class="cls-13" x="42.52" y="53.65" width="39.84" height="7.92"/><rect class="cls-1" x="60.37" y="68.44" width="33.75" height="7.92"/><rect class="cls-20" x="42.52" y="83.23" width="69.97" height="7.92"/><rect class="cls-14" x="60.69" y="98.02" width="24.36" height="7.92"/></g></g></g></svg>